<svg xmlns="http://www.w3.org/2000/svg" xmlns:xlink="http://www.w3.org/1999/xlink" width="1080" zoomAndPan="magnify" viewBox="0 0 810 809.999993" height="1080" preserveAspectRatio="xMidYMid meet" version="1.0"><defs><clipPath id="e885e67d46"><path d="M 283.5 283.5 L 526.5 283.5 L 526.5 526.5 L 283.5 526.5 Z M 283.5 283.5 " clip-rule="nonzero"/></clipPath><clipPath id="b83752a7e9"><path d="M 0.5 0.5 L 243.5 0.5 L 243.5 243.5 L 0.5 243.5 Z M 0.5 0.5 " clip-rule="nonzero"/></clipPath><clipPath id="ed8d745c17"><rect x="0" width="244" y="0" height="244"/></clipPath><clipPath id="199091e72a"><path d="M 336.054688 330.390625 L 360.339844 330.390625 L 360.339844 475.296875 L 336.054688 475.296875 Z M 336.054688 330.390625 " clip-rule="nonzero"/></clipPath><clipPath id="060a867d62"><path d="M 345.148438 333.824219 C 348.375 345.824219 349.425781 346.949219 350.25 349.5 C 351.675781 353.625 353.25 359.25 354.226562 365.851562 C 355.574219 375.75 354.675781 391.425781 355.648438 403.273438 C 356.476562 413.925781 358.648438 423 359.324219 433.726562 C 360.074219 445.574219 361.050781 465.898438 359.398438 471.300781 C 358.875 473.023438 358.125 473.699219 357.300781 474.375 C 356.625 474.898438 355.800781 475.125 354.976562 475.199219 C 354.226562 475.351562 353.324219 475.199219 352.574219 474.898438 C 351.824219 474.601562 351.074219 474.148438 350.476562 473.550781 C 349.949219 472.949219 349.574219 472.125 349.351562 471.300781 C 349.199219 470.476562 349.050781 469.351562 349.5 468.449219 C 350.023438 467.25 351.75 465.601562 353.023438 465.074219 C 354 464.699219 355.351562 464.925781 356.324219 465.300781 C 357.226562 465.675781 358.273438 466.425781 358.800781 467.398438 C 359.398438 468.601562 359.699219 471 359.101562 472.273438 C 358.5 473.550781 356.476562 474.898438 355.199219 475.199219 C 354.148438 475.425781 352.875 475.125 351.976562 474.675781 C 351 474.148438 350.101562 473.324219 349.648438 472.273438 C 349.199219 471 349.199219 468.675781 349.949219 467.398438 C 350.699219 466.199219 352.800781 465.074219 354.074219 464.925781 C 355.199219 464.773438 356.398438 465.226562 357.300781 465.824219 C 358.125 466.425781 358.949219 467.476562 359.25 468.449219 C 359.625 469.351562 359.550781 470.476562 359.398438 471.300781 C 359.175781 472.125 358.800781 472.949219 358.273438 473.550781 C 357.675781 474.148438 356.925781 474.601562 356.175781 474.898438 C 355.425781 475.199219 354.601562 475.351562 353.773438 475.199219 C 352.726562 475.050781 351.226562 474.226562 350.476562 473.550781 C 349.875 472.875 349.648438 472.574219 349.351562 471.300781 C 348.148438 466.425781 349.949219 444.824219 349.199219 432.300781 C 348.523438 420.675781 346.050781 408.601562 345.449219 398.699219 C 344.925781 390.75 345.523438 383.398438 345.300781 377.398438 C 345.074219 373.050781 344.925781 369.824219 344.324219 366.074219 C 343.800781 362.398438 343.050781 359.25 342 355.125 C 340.5 349.425781 336 339 336.074219 335.25 C 336.074219 333.75 336.449219 332.925781 337.125 332.101562 C 337.800781 331.351562 339 330.675781 339.976562 330.523438 C 341.023438 330.375 342.375 330.601562 343.199219 331.199219 C 344.101562 331.726562 345.148438 333.824219 345.148438 333.824219 " clip-rule="nonzero"/></clipPath><clipPath id="50fc9553f8"><path d="M 0.0546875 0.390625 L 24.339844 0.390625 L 24.339844 145.296875 L 0.0546875 145.296875 Z M 0.0546875 0.390625 " clip-rule="nonzero"/></clipPath><clipPath id="f39c8a8cdd"><path d="M 9.148438 3.824219 C 12.375 15.824219 13.425781 16.949219 14.25 19.5 C 15.675781 23.625 17.25 29.25 18.226562 35.851562 C 19.574219 45.75 18.675781 61.425781 19.648438 73.273438 C 20.476562 83.925781 22.648438 93 23.324219 103.726562 C 24.074219 115.574219 25.050781 135.898438 23.398438 141.300781 C 22.875 143.023438 22.125 143.699219 21.300781 144.375 C 20.625 144.898438 19.800781 145.125 18.976562 145.199219 C 18.226562 145.351562 17.324219 145.199219 16.574219 144.898438 C 15.824219 144.601562 15.074219 144.148438 14.476562 143.550781 C 13.949219 142.949219 13.574219 142.125 13.351562 141.300781 C 13.199219 140.476562 13.050781 139.351562 13.5 138.449219 C 14.023438 137.25 15.75 135.601562 17.023438 135.074219 C 18 134.699219 19.351562 134.925781 20.324219 135.300781 C 21.226562 135.675781 22.273438 136.425781 22.800781 137.398438 C 23.398438 138.601562 23.699219 141 23.101562 142.273438 C 22.5 143.550781 20.476562 144.898438 19.199219 145.199219 C 18.148438 145.425781 16.875 145.125 15.976562 144.675781 C 15 144.148438 14.101562 143.324219 13.648438 142.273438 C 13.199219 141 13.199219 138.675781 13.949219 137.398438 C 14.699219 136.199219 16.800781 135.074219 18.074219 134.925781 C 19.199219 134.773438 20.398438 135.226562 21.300781 135.824219 C 22.125 136.425781 22.949219 137.476562 23.25 138.449219 C 23.625 139.351562 23.550781 140.476562 23.398438 141.300781 C 23.175781 142.125 22.800781 142.949219 22.273438 143.550781 C 21.675781 144.148438 20.925781 144.601562 20.175781 144.898438 C 19.425781 145.199219 18.601562 145.351562 17.773438 145.199219 C 16.726562 145.050781 15.226562 144.226562 14.476562 143.550781 C 13.875 142.875 13.648438 142.574219 13.351562 141.300781 C 12.148438 136.425781 13.949219 114.824219 13.199219 102.300781 C 12.523438 90.675781 10.050781 78.601562 9.449219 68.699219 C 8.925781 60.75 9.523438 53.398438 9.300781 47.398438 C 9.074219 43.050781 8.925781 39.824219 8.324219 36.074219 C 7.800781 32.398438 7.050781 29.25 6 25.125 C 4.5 19.425781 0 9 0.0742188 5.25 C 0.0742188 3.75 0.449219 2.925781 1.125 2.101562 C 1.800781 1.351562 3 0.675781 3.976562 0.523438 C 5.023438 0.375 6.375 0.601562 7.199219 1.199219 C 8.101562 1.726562 9.148438 3.824219 9.148438 3.824219 " clip-rule="nonzero"/></clipPath><clipPath id="341dff06cc"><rect x="0" width="25" y="0" height="146"/></clipPath><clipPath id="4660aea184"><path d="M 315.175781 324.78125 L 383.496094 324.78125 L 383.496094 338.675781 L 315.175781 338.675781 Z M 315.175781 324.78125 " clip-rule="nonzero"/></clipPath><clipPath id="3e1a6ec841"><path d="M 319.800781 324.824219 C 353.398438 325.199219 374.175781 326.925781 379.351562 328.574219 C 380.925781 329.101562 381.449219 329.398438 382.125 330.148438 C 382.875 330.898438 383.398438 331.949219 383.476562 333 C 383.476562 334.351562 382.574219 336.449219 381.675781 337.351562 C 380.851562 338.101562 379.648438 338.398438 378.675781 338.476562 C 377.625 338.476562 376.425781 338.25 375.601562 337.574219 C 374.625 336.75 373.5 334.800781 373.5 333.375 C 373.5 332.023438 374.773438 330.074219 375.75 329.324219 C 376.574219 328.648438 377.773438 328.351562 378.824219 328.5 C 380.101562 328.726562 382.125 329.773438 382.800781 330.976562 C 383.476562 332.175781 383.550781 334.425781 382.949219 335.625 C 382.351562 336.898438 380.699219 337.949219 379.199219 338.398438 C 377.476562 338.925781 375.675781 338.476562 373.125 338.25 C 368.699219 337.800781 362.25 335.851562 355.199219 335.101562 C 345.226562 334.050781 323.851562 335.625 318.675781 333.976562 C 317.175781 333.449219 316.574219 332.925781 315.976562 332.101562 C 315.449219 331.273438 315.074219 329.925781 315.226562 328.875 C 315.375 327.898438 315.976562 326.699219 316.726562 326.023438 C 317.550781 325.273438 319.800781 324.824219 319.800781 324.824219 " clip-rule="nonzero"/></clipPath><clipPath id="d60126eb06"><path d="M 0.175781 0.78125 L 68.496094 0.78125 L 68.496094 14.675781 L 0.175781 14.675781 Z M 0.175781 0.78125 " clip-rule="nonzero"/></clipPath><clipPath id="f6b9a10e6c"><path d="M 4.800781 0.824219 C 38.398438 1.199219 59.175781 2.925781 64.351562 4.574219 C 65.925781 5.101562 66.449219 5.398438 67.125 6.148438 C 67.875 6.898438 68.398438 7.949219 68.476562 9 C 68.476562 10.351562 67.574219 12.449219 66.675781 13.351562 C 65.851562 14.101562 64.648438 14.398438 63.675781 14.476562 C 62.625 14.476562 61.425781 14.25 60.601562 13.574219 C 59.625 12.75 58.5 10.800781 58.5 9.375 C 58.5 8.023438 59.773438 6.074219 60.75 5.324219 C 61.574219 4.648438 62.773438 4.351562 63.824219 4.5 C 65.101562 4.726562 67.125 5.773438 67.800781 6.976562 C 68.476562 8.175781 68.550781 10.425781 67.949219 11.625 C 67.351562 12.898438 65.699219 13.949219 64.199219 14.398438 C 62.476562 14.925781 60.675781 14.476562 58.125 14.25 C 53.699219 13.800781 47.25 11.851562 40.199219 11.101562 C 30.226562 10.050781 8.851562 11.625 3.675781 9.976562 C 2.175781 9.449219 1.574219 8.925781 0.976562 8.101562 C 0.449219 7.273438 0.0742188 5.925781 0.226562 4.875 C 0.375 3.898438 0.976562 2.699219 1.726562 2.023438 C 2.550781 1.273438 4.800781 0.824219 4.800781 0.824219 " clip-rule="nonzero"/></clipPath><clipPath id="050a4c6374"><rect x="0" width="69" y="0" height="15"/></clipPath><clipPath id="89c8fac1eb"><path d="M 320 459.414062 L 389.8125 459.414062 L 389.8125 476.234375 L 320 476.234375 Z M 320 459.414062 " clip-rule="nonzero"/></clipPath><clipPath id="ea84253e59"><path d="M 325.90625 459.523438 C 340.757812 463.425781 351.105469 464.476562 359.65625 465.226562 C 368.433594 466.050781 382.382812 465.148438 386.433594 466.648438 C 387.855469 467.101562 388.382812 467.699219 388.90625 468.523438 C 389.433594 469.273438 389.808594 470.476562 389.730469 471.449219 C 389.65625 472.425781 389.207031 473.625 388.605469 474.375 C 387.933594 475.050781 386.957031 475.800781 385.90625 475.949219 C 384.707031 476.101562 382.53125 475.5 381.558594 474.675781 C 380.808594 474.074219 380.28125 472.949219 380.132812 471.976562 C 379.980469 471 380.058594 469.800781 380.65625 468.898438 C 381.332031 467.851562 383.132812 466.648438 384.40625 466.425781 C 385.382812 466.199219 386.582031 466.574219 387.40625 467.101562 C 388.230469 467.550781 389.132812 468.449219 389.433594 469.425781 C 389.730469 470.625 389.507812 472.800781 388.90625 473.925781 C 388.382812 474.824219 387.632812 475.351562 386.433594 475.800781 C 384.183594 476.550781 379.683594 476.101562 375.40625 475.949219 C 369.632812 475.726562 361.90625 474.976562 354.855469 474.226562 C 347.355469 473.398438 337.757812 472.425781 331.757812 471.074219 C 327.855469 470.175781 324.257812 469.273438 322.308594 468 C 321.257812 467.25 320.582031 466.425781 320.28125 465.449219 C 319.90625 464.476562 319.980469 463.125 320.355469 462.148438 C 320.730469 461.25 321.707031 460.199219 322.605469 459.824219 C 323.582031 459.375 325.90625 459.523438 325.90625 459.523438 " clip-rule="nonzero"/></clipPath><clipPath id="9f1efd13b6"><path d="M 0 0.414062 L 69.8125 0.414062 L 69.8125 17.234375 L 0 17.234375 Z M 0 0.414062 " clip-rule="nonzero"/></clipPath><clipPath id="0607a97bc5"><path d="M 5.90625 0.523438 C 20.757812 4.425781 31.105469 5.476562 39.65625 6.226562 C 48.433594 7.050781 62.382812 6.148438 66.433594 7.648438 C 67.855469 8.101562 68.382812 8.699219 68.90625 9.523438 C 69.433594 10.273438 69.808594 11.476562 69.730469 12.449219 C 69.65625 13.425781 69.207031 14.625 68.605469 15.375 C 67.933594 16.050781 66.957031 16.800781 65.90625 16.949219 C 64.707031 17.101562 62.53125 16.5 61.558594 15.675781 C 60.808594 15.074219 60.28125 13.949219 60.132812 12.976562 C 59.980469 12 60.058594 10.800781 60.65625 9.898438 C 61.332031 8.851562 63.132812 7.648438 64.40625 7.425781 C 65.382812 7.199219 66.582031 7.574219 67.40625 8.101562 C 68.230469 8.550781 69.132812 9.449219 69.433594 10.425781 C 69.730469 11.625 69.507812 13.800781 68.90625 14.925781 C 68.382812 15.824219 67.632812 16.351562 66.433594 16.800781 C 64.183594 17.550781 59.683594 17.101562 55.40625 16.949219 C 49.632812 16.726562 41.90625 15.976562 34.855469 15.226562 C 27.355469 14.398438 17.757812 13.425781 11.757812 12.074219 C 7.855469 11.175781 4.257812 10.273438 2.308594 9 C 1.257812 8.25 0.582031 7.425781 0.28125 6.449219 C -0.09375 5.476562 -0.0195312 4.125 0.355469 3.148438 C 0.730469 2.25 1.707031 1.199219 2.605469 0.824219 C 3.582031 0.375 5.90625 0.523438 5.90625 0.523438 " clip-rule="nonzero"/></clipPath><clipPath id="2cdd2f8ad1"><rect x="0" width="70" y="0" height="18"/></clipPath><clipPath id="f69fec5fc7"><path d="M 415.644531 322.570312 L 494 322.570312 L 494 476 L 415.644531 476 Z M 415.644531 322.570312 " clip-rule="nonzero"/></clipPath><clipPath id="731a5e4b9a"><path d="M 484.949219 347.699219 C 479.625 336.898438 477.375 336.148438 475.574219 335.398438 C 474 334.648438 472.726562 334.273438 470.851562 333.898438 C 468.300781 333.300781 464.25 332.476562 461.625 332.773438 C 459.601562 332.925781 458.175781 333.375 456.449219 334.5 C 453.898438 335.925781 451.125 339.074219 448.648438 341.773438 C 446.023438 344.699219 443.023438 347.925781 441.074219 351.300781 C 439.199219 354.523438 437.773438 357.898438 436.875 361.425781 C 435.976562 365.101562 435.675781 369.074219 435.601562 372.976562 C 435.601562 376.875 435.675781 380.625 436.726562 384.898438 C 437.925781 390.226562 440.476562 395.175781 443.324219 402.074219 C 447.675781 412.648438 458.625 431.625 461.023438 442.125 C 462.449219 448.5 462.074219 454.351562 461.476562 458.175781 C 461.101562 460.351562 460.800781 461.476562 459.601562 463.199219 C 457.800781 465.75 453.226562 469.273438 450.601562 471.148438 C 448.726562 472.425781 447.675781 473.175781 445.574219 473.925781 C 442.574219 474.976562 437.101562 475.800781 433.949219 475.949219 C 431.773438 476.023438 430.351562 475.800781 428.476562 475.351562 C 426.523438 474.976562 424.425781 474.523438 422.550781 473.398438 C 420.375 472.050781 417.226562 469.199219 416.324219 467.324219 C 415.800781 466.199219 415.800781 465.074219 416.101562 464.023438 C 416.324219 463.050781 417 461.925781 417.824219 461.25 C 418.648438 460.574219 419.851562 460.125 420.898438 460.125 C 421.949219 460.125 423.226562 460.351562 424.050781 461.101562 C 425.101562 461.925781 426.226562 463.949219 426.226562 465.375 C 426.148438 466.800781 425.023438 468.824219 423.824219 469.574219 C 422.625 470.398438 420.375 470.550781 419.023438 470.023438 C 417.75 469.425781 416.398438 467.550781 416.023438 466.273438 C 415.726562 465.226562 415.875 463.949219 416.476562 462.976562 C 417.148438 461.851562 419.023438 460.425781 420.375 460.199219 C 421.425781 459.898438 422.699219 460.199219 423.601562 460.800781 C 424.5 461.398438 424.726562 463.050781 425.773438 463.800781 C 427.125 464.851562 429.300781 465.523438 431.476562 465.75 C 434.175781 466.125 438 465.898438 441 464.851562 C 444.074219 463.800781 447.976562 461.324219 449.625 459.148438 C 450.824219 457.726562 451.050781 456.375 451.425781 454.425781 C 451.875 451.726562 452.25 448.574219 451.351562 444.148438 C 449.398438 435.226562 438.601562 416.175781 434.25 405.523438 C 431.25 398.175781 428.476562 392.476562 427.125 386.550781 C 426 381.675781 426 376.574219 425.925781 372.75 C 425.851562 370.050781 425.773438 368.476562 426.148438 365.773438 C 426.75 361.800781 428.398438 355.273438 429.898438 351.523438 C 430.949219 348.898438 431.851562 347.476562 433.351562 345.226562 C 435.449219 342.074219 438.75 338.023438 441.523438 334.875 C 444.226562 331.949219 447.375 328.574219 449.773438 326.773438 C 451.425781 325.574219 452.699219 325.050781 454.273438 324.375 C 455.925781 323.699219 457.726562 323.175781 459.601562 322.949219 C 461.476562 322.726562 463.574219 322.949219 465.449219 323.101562 C 467.398438 323.25 468.898438 323.324219 471 323.851562 C 474.074219 324.601562 479.175781 326.25 481.949219 327.75 C 483.898438 328.800781 485.25 329.851562 486.601562 331.199219 C 487.949219 332.398438 489 333.601562 489.976562 335.398438 C 491.476562 337.875 493.425781 342.601562 493.800781 345 C 494.023438 346.351562 494.023438 347.324219 493.574219 348.300781 C 493.125 349.199219 492.074219 350.175781 491.25 350.550781 C 490.574219 350.925781 489.824219 351.074219 489.074219 350.925781 C 488.101562 350.851562 486.75 350.175781 486.074219 349.574219 C 485.476562 349.050781 484.949219 347.699219 484.949219 347.699219 " clip-rule="nonzero"/></clipPath><clipPath id="d67700a827"><path d="M 0.679688 0.570312 L 79 0.570312 L 79 154 L 0.679688 154 Z M 0.679688 0.570312 " clip-rule="nonzero"/></clipPath><clipPath id="9e6eded806"><path d="M 69.949219 25.699219 C 64.625 14.898438 62.375 14.148438 60.574219 13.398438 C 59 12.648438 57.726562 12.273438 55.851562 11.898438 C 53.300781 11.300781 49.25 10.476562 46.625 10.773438 C 44.601562 10.925781 43.175781 11.375 41.449219 12.5 C 38.898438 13.925781 36.125 17.074219 33.648438 19.773438 C 31.023438 22.699219 28.023438 25.925781 26.074219 29.300781 C 24.199219 32.523438 22.773438 35.898438 21.875 39.425781 C 20.976562 43.101562 20.675781 47.074219 20.601562 50.976562 C 20.601562 54.875 20.675781 58.625 21.726562 62.898438 C 22.925781 68.226562 25.476562 73.175781 28.324219 80.074219 C 32.675781 90.648438 43.625 109.625 46.023438 120.125 C 47.449219 126.5 47.074219 132.351562 46.476562 136.175781 C 46.101562 138.351562 45.800781 139.476562 44.601562 141.199219 C 42.800781 143.75 38.226562 147.273438 35.601562 149.148438 C 33.726562 150.425781 32.675781 151.175781 30.574219 151.925781 C 27.574219 152.976562 22.101562 153.800781 18.949219 153.949219 C 16.773438 154.023438 15.351562 153.800781 13.476562 153.351562 C 11.523438 152.976562 9.425781 152.523438 7.550781 151.398438 C 5.375 150.050781 2.226562 147.199219 1.324219 145.324219 C 0.800781 144.199219 0.800781 143.074219 1.101562 142.023438 C 1.324219 141.050781 2 139.925781 2.824219 139.25 C 3.648438 138.574219 4.851562 138.125 5.898438 138.125 C 6.949219 138.125 8.226562 138.351562 9.050781 139.101562 C 10.101562 139.925781 11.226562 141.949219 11.226562 143.375 C 11.148438 144.800781 10.023438 146.824219 8.824219 147.574219 C 7.625 148.398438 5.375 148.550781 4.023438 148.023438 C 2.75 147.425781 1.398438 145.550781 1.023438 144.273438 C 0.726562 143.226562 0.875 141.949219 1.476562 140.976562 C 2.148438 139.851562 4.023438 138.425781 5.375 138.199219 C 6.425781 137.898438 7.699219 138.199219 8.601562 138.800781 C 9.5 139.398438 9.726562 141.050781 10.773438 141.800781 C 12.125 142.851562 14.300781 143.523438 16.476562 143.75 C 19.175781 144.125 23 143.898438 26 142.851562 C 29.074219 141.800781 32.976562 139.324219 34.625 137.148438 C 35.824219 135.726562 36.050781 134.375 36.425781 132.425781 C 36.875 129.726562 37.25 126.574219 36.351562 122.148438 C 34.398438 113.226562 23.601562 94.175781 19.25 83.523438 C 16.25 76.175781 13.476562 70.476562 12.125 64.550781 C 11 59.675781 11 54.574219 10.925781 50.75 C 10.851562 48.050781 10.773438 46.476562 11.148438 43.773438 C 11.75 39.800781 13.398438 33.273438 14.898438 29.523438 C 15.949219 26.898438 16.851562 25.476562 18.351562 23.226562 C 20.449219 20.074219 23.75 16.023438 26.523438 12.875 C 29.226562 9.949219 32.375 6.574219 34.773438 4.773438 C 36.425781 3.574219 37.699219 3.050781 39.273438 2.375 C 40.925781 1.699219 42.726562 1.175781 44.601562 0.949219 C 46.476562 0.726562 48.574219 0.949219 50.449219 1.101562 C 52.398438 1.25 53.898438 1.324219 56 1.851562 C 59.074219 2.601562 64.175781 4.25 66.949219 5.75 C 68.898438 6.800781 70.25 7.851562 71.601562 9.199219 C 72.949219 10.398438 74 11.601562 74.976562 13.398438 C 76.476562 15.875 78.425781 20.601562 78.800781 23 C 79.023438 24.351562 79.023438 25.324219 78.574219 26.300781 C 78.125 27.199219 77.074219 28.175781 76.25 28.550781 C 75.574219 28.925781 74.824219 29.074219 74.074219 28.925781 C 73.101562 28.851562 71.75 28.175781 71.074219 27.574219 C 70.476562 27.050781 69.949219 25.699219 69.949219 25.699219 " clip-rule="nonzero"/></clipPath><clipPath id="9294d7c6db"><rect x="0" width="79" y="0" height="154"/></clipPath></defs><rect x="-81" width="972" fill="#ffffff" y="-80.999999" height="971.999992" fill-opacity="1"/><rect x="-81" width="972" fill="#ffffff" y="-80.999999" height="971.999992" fill-opacity="1"/><g clip-path="url(#e885e67d46)"><g transform="matrix(1, 0, 0, 1, 283, 283)"><g clip-path="url(#ed8d745c17)"><g clip-path="url(#b83752a7e9)"><path fill="#000000" d="M 0.5 0.5 L 243.5 0.5 L 243.5 243.5 L 0.5 243.5 Z M 0.5 0.5 " fill-opacity="1" fill-rule="nonzero"/></g></g></g></g><g clip-path="url(#199091e72a)"><g clip-path="url(#060a867d62)"><g transform="matrix(1, 0, 0, 1, 336, 330)"><g clip-path="url(#341dff06cc)"><g clip-path="url(#50fc9553f8)"><g clip-path="url(#f39c8a8cdd)"><rect x="-514.2" width="1166.4" fill="#ffffff" height="1166.39999" y="-508.199998" fill-opacity="1"/></g></g></g></g></g></g><g clip-path="url(#4660aea184)"><g clip-path="url(#3e1a6ec841)"><g transform="matrix(1, 0, 0, 1, 315, 324)"><g clip-path="url(#050a4c6374)"><g clip-path="url(#d60126eb06)"><g clip-path="url(#f6b9a10e6c)"><rect x="-493.2" width="1166.4" fill="#ffffff" height="1166.39999" y="-502.199998" fill-opacity="1"/></g></g></g></g></g></g><g clip-path="url(#89c8fac1eb)"><g clip-path="url(#ea84253e59)"><g transform="matrix(1, 0, 0, 1, 320, 459)"><g clip-path="url(#2cdd2f8ad1)"><g clip-path="url(#9f1efd13b6)"><g clip-path="url(#0607a97bc5)"><rect x="-498.2" width="1166.4" fill="#ffffff" height="1166.39999" y="-637.199998" fill-opacity="1"/></g></g></g></g></g></g><g clip-path="url(#f69fec5fc7)"><g clip-path="url(#731a5e4b9a)"><g transform="matrix(1, 0, 0, 1, 415, 322)"><g clip-path="url(#9294d7c6db)"><g clip-path="url(#d67700a827)"><g clip-path="url(#9e6eded806)"><rect x="-593.2" width="1166.4" fill="#ffffff" height="1166.39999" y="-500.199998" fill-opacity="1"/></g></g></g></g></g></g></svg>